<svg version="1.1" xmlns="http://www.w3.org/2000/svg" viewBox="-264.1919967651367 -1422.2080490112305 7471.7304913654425 2482.94411315918"><desc>Created with Snap</desc><defs></defs><g><rect x="-264.1919967651367" y="-1422.2080490112305" width="7471.7304913654425" height="2482.94411315918" fill="#efd9ce" style=""></rect><g transform="matrix(10.6167,0,0,10.6167,4539.5816,-1472.4095)"><path d="M94.618 209.664h67.251c7.066-0.025 12.774-5.734 12.8-12.8v-22.528h34.893c7.065-0.025 12.774-5.734 12.8-12.8v-74.445c-0.025-7.066-5.734-12.775-12.8-12.8h-21.478v-32.947c-0.025-4.249-3.43-7.654-7.68-7.68h-104.32c-4.249 0.026-7.654 3.431-7.68 7.68v32.973h-21.478c-7.066 0.025-12.775 5.734-12.8 12.8v74.419c0.026 7.065 5.734 12.774 12.8 12.8h34.893v22.528c0 7.091 5.709 12.8 12.8 12.8zM163.661 198.681c-0.487 0.487-1.101 0.743-1.792 0.768h-67.251c-0.691 0-1.305-0.281-1.792-0.768s-0.768-1.101-0.768-1.792v-54.835c0-0.691 0.281-1.305 0.768-1.792s1.101-0.743 1.792-0.768h67.251c0.691 0 1.305 0.281 1.792 0.768s0.743 1.101 0.768 1.792v54.809c0 0.717-0.281 1.331-0.768 1.817zM78.643 43.904h99.2v30.413h-99.2v-30.413zM46.925 164.096c-0.691 0-1.306-0.281-1.818-0.743-0.486-0.487-0.742-1.101-0.742-1.817v-74.445c0-0.691 0.282-1.331 0.742-1.817 0.486-0.487 1.101-0.743 1.818-0.743h162.637c0.691 0 1.305 0.281 1.817 0.743 0.487 0.487 0.743 1.101 0.743 1.817v74.445c0 0.691-0.281 1.331-0.743 1.817-0.487 0.487-1.101 0.743-1.817 0.743h-34.893v-22.041c-0.025-7.065-5.734-12.774-12.8-12.8h-67.251c-7.066 0.025-12.775 5.734-12.8 12.8v22.041h-34.893z" fill="#292929" style=""></path><desc>Created with Snap</desc><defs></defs></g><g><g transform="matrix(1.024,0,0,-1.024,0,0)"><path d="M346 220Q343 274 314 306Q286 338 232 338Q179 338 143 305Q107 273 98 220L346 220ZM348 96Q355 108 364 108Q373 108 382 103Q391 99 394 89Q398 80 393 72Q342 -10 231 -10Q143 -10 92 46Q42 103 42 189Q42 275 94 329Q146 384 231 384Q316 384 357 333Q399 282 399 197Q399 174 373 174L96 173Q100 111 136 73Q173 36 231 36Q309 36 348 96ZM756 196L523 196Q513 196 506 202Q500 209 500 219Q500 229 506 236Q513 243 523 243L756 243Q766 243 772 236Q779 229 779 219Q779 209 772 202Q766 196 756 196ZM1475 276L1475 66Q1475 47 1502 47L1541 47Q1551 47 1557 40Q1564 33 1564 23Q1564 13 1557 6Q1551 0 1541 0L1502 0Q1421 0 1421 65L1421 276Q1421 338 1363 338Q1285 338 1234 251L1234 13Q1234 3 1226 -4Q1218 -10 1207 -10Q1196 -10 1188 -4Q1180 3 1180 13L1180 276Q1180 338 1122 338Q1077 338 1046 315Q1016 292 988 243L988 13Q988 3 980 -4Q972 -10 961 -10Q950 -10 942 -4Q934 3 934 13L934 308Q934 327 915 327L868 327Q858 327 851 333Q845 340 845 350Q845 360 851 367Q858 374 868 374L922 374Q984 374 984 306Q1015 346 1046 365Q1078 384 1123 384Q1209 384 1229 312Q1259 348 1290 366Q1321 384 1368 384Q1415 384 1445 356Q1475 329 1475 276ZM1711 303Q1763 384 1849 384Q1936 384 1981 328Q2027 273 2027 188Q2027 103 1980 46Q1934 -10 1851 -10Q1769 -10 1715 47L1715 -206Q1715 -216 1707 -223Q1699 -229 1688 -229Q1677 -229 1669 -223Q1661 -216 1661 -206L1661 308Q1661 327 1642 327L1595 327Q1585 327 1578 333Q1572 340 1572 350Q1572 360 1578 367Q1585 374 1595 374L1649 374Q1713 374 1711 303ZM1715 243L1715 96Q1779 36 1843 36Q1907 36 1940 78Q1974 120 1974 189Q1974 258 1941 298Q1908 338 1850 338Q1765 338 1715 243ZM2099 374L2150 374Q2213 374 2215 306Q2269 384 2343 384Q2385 384 2414 368Q2428 360 2428 347L2428 263Q2428 253 2420 246Q2412 240 2401 240Q2390 240 2382 246Q2374 253 2374 263L2374 333Q2361 338 2335 338Q2309 338 2276 313Q2243 289 2219 241L2219 13Q2219 3 2211 -4Q2203 -10 2192 -10Q2181 -10 2173 -4Q2165 3 2165 13L2165 308Q2165 327 2145 327L2099 327Q2089 327 2082 333Q2076 340 2076 350Q2076 360 2082 367Q2089 374 2099 374ZM2792 220Q2789 274 2760 306Q2732 338 2678 338Q2625 338 2589 305Q2553 273 2544 220L2792 220ZM2794 96Q2801 108 2810 108Q2819 108 2828 103Q2837 99 2840 89Q2844 80 2839 72Q2788 -10 2677 -10Q2589 -10 2538 46Q2488 103 2488 189Q2488 275 2540 329Q2592 384 2677 384Q2762 384 2803 333Q2845 282 2845 197Q2845 174 2819 174L2542 173Q2546 111 2582 73Q2619 36 2677 36Q2755 36 2794 96ZM2932 39L2932 120Q2932 130 2940 136Q2948 143 2959 143Q2970 143 2978 136Q2986 130 2986 120L2986 52Q3034 36 3086 36Q3200 36 3200 100Q3200 148 3093 171Q3088 172 3071 176Q3054 180 3043 182Q3032 185 3006 194Q2981 204 2970 214Q2940 241 2940 280Q2940 320 2966 344Q2993 369 3025 376Q3057 384 3095 384Q3165 384 3224 357Q3242 349 3242 335L3242 258Q3242 248 3234 241Q3226 235 3215 235Q3204 235 3196 241Q3188 248 3188 258L3188 322Q3148 338 3095 338Q2993 338 2993 280Q2993 259 3006 251Q3020 243 3026 239Q3033 235 3050 231Q3074 225 3099 220Q3124 215 3140 211Q3156 207 3180 197Q3205 188 3219 176Q3254 148 3254 103Q3254 58 3224 31Q3195 5 3160 -3Q3126 -10 3086 -10Q3007 -10 2950 16Q2932 24 2932 39ZM3447 351L3447 13Q3447 3 3439 -4Q3431 -10 3420 -10Q3409 -10 3401 -4Q3393 3 3393 13L3393 327L3327 327Q3317 327 3310 333Q3304 340 3304 350Q3304 360 3310 367Q3317 374 3327 374L3424 374Q3447 374 3447 351ZM3391 524Q3382 534 3382 548Q3382 562 3391 572Q3400 582 3416 582Q3432 582 3441 572Q3451 562 3451 548Q3451 534 3441 524Q3432 514 3416 514Q3400 514 3391 524ZM3747 36Q3808 36 3846 78Q3885 120 3885 186Q3885 253 3846 295Q3808 338 3747 338Q3686 338 3647 295Q3609 253 3609 186Q3609 120 3647 78Q3686 36 3747 36ZM3608 45Q3555 101 3555 187Q3555 273 3609 328Q3663 384 3747 384Q3831 384 3884 328Q3938 273 3938 186Q3938 100 3884 45Q3831 -10 3746 -10Q3662 -10 3608 45ZM4055 327L4008 327Q3998 327 3991 333Q3985 340 3985 350Q3985 360 3991 367Q3998 374 4008 374L4062 374Q4124 374 4124 306Q4184 384 4275 384Q4329 384 4363 356Q4398 329 4398 276L4398 66Q4398 47 4425 47L4464 47Q4474 47 4480 40Q4487 33 4487 23Q4487 13 4480 6Q4474 0 4464 0L4425 0Q4344 0 4344 65L4344 276Q4344 306 4325 322Q4307 338 4274 338Q4182 338 4128 242L4128 13Q4128 3 4120 -4Q4112 -10 4101 -10Q4090 -10 4082 -4Q4074 3 4074 13L4074 308Q4074 327 4055 327Z" fill="#292929" style=""></path></g></g></g></svg>